<!DOCTYPE svg PUBLIC "-//W3C//DTD SVG 1.1//EN" "http://www.w3.org/Graphics/SVG/1.1/DTD/svg11.dtd">
<!-- Uploaded to: SVG Repo, www.svgrepo.com, Transformed by: SVG Repo Mixer Tools -->
<svg fill="#4ade80" height="800px" width="800px" version="1.1" id="Capa_1" xmlns="http://www.w3.org/2000/svg" xmlns:xlink="http://www.w3.org/1999/xlink" viewBox="0 0 488.4 488.4" xml:space="preserve">
<g id="SVGRepo_bgCarrier" stroke-width="0"/>
<g id="SVGRepo_tracerCarrier" stroke-linecap="round" stroke-linejoin="round"/>
<g id="SVGRepo_iconCarrier"> <g> <g> <g> <path d="M0,89.1v399.3h488.4V89.1H0z M107.7,431.8H53.9V279.1h53.9v152.7H107.7z M434.9,431.8h-0.4H133.7V279.1h301.2V431.8z M434.9,253.1h-0.4H53.9V145.3H435v107.8H434.9z"/> <path d="M0,63.2h488.4V0H0V63.2z M441.1,18.6h19.4c7.4,0,13.2,5.8,13.2,13.2S467.9,45,460.5,45h-19.4c-7.4,0-13.2-5.8-13.2-13.2 S434.2,18.6,441.1,18.6z M377.9,18.6h19.4c7.4,0,13.2,5.8,13.2,13.2S404.7,45,397.3,45h-19.4c-7.4,0-13.2-5.8-13.2-13.2 S370.6,18.6,377.9,18.6z M27.9,18.6h306.3c7.4,0,13.2,5.8,13.2,13.2S341.6,45,334.2,45H27.9c-7.4,0-13.2-5.8-13.2-13.2 S20.9,18.6,27.9,18.6z"/> </g> </g> </g> </g>
</svg>