<!DOCTYPE svg PUBLIC "-//W3C//DTD SVG 1.1//EN" "http://www.w3.org/Graphics/SVG/1.1/DTD/svg11.dtd">
<!-- Uploaded to: SVG Repo, www.svgrepo.com, Transformed by: SVG Repo Mixer Tools -->
<svg version="1.1" id="Layer_1" xmlns="http://www.w3.org/2000/svg" xmlns:xlink="http://www.w3.org/1999/xlink" viewBox="0 0 512 512" xml:space="preserve" width="800px" height="800px" fill="#000000">
<g id="SVGRepo_bgCarrier" stroke-width="0"/>
<g id="SVGRepo_tracerCarrier" stroke-linecap="round" stroke-linejoin="round"/>
<g id="SVGRepo_iconCarrier"> <polygon style="fill:#f97316;" points="373.106,51.745 373.106,138.894 261.447,138.894 261.447,427.574 294.128,427.574 294.128,460.255 228.766,460.255 185.191,276.698 228.766,51.745 "/> <g> <rect x="294.128" y="427.574" style="fill:#f97316;" width="32.681" height="32.681"/> <rect x="373.106" y="51.745" style="fill:#f97316;" width="32.681" height="119.83"/> </g> <polygon style="fill:#f97316;" points="228.766,51.745 228.766,460.255 87.149,460.255 87.149,427.574 152.511,427.574 152.511,138.894 40.851,138.894 40.851,171.574 8.17,171.574 8.17,51.745 "/> <path d="M405.787,43.574H8.17c-4.513,0-8.17,3.658-8.17,8.17v119.83c0,4.512,3.657,8.17,8.17,8.17h32.681 c4.513,0,8.17-3.658,8.17-8.17v-24.511h95.319v119.83c0,4.512,3.657,8.17,8.17,8.17s8.17-3.658,8.17-8.17v-128 c0-4.512-3.657-8.17-8.17-8.17H40.851c-4.513,0-8.17,3.658-8.17,8.17v24.511H16.34V59.915h381.277v103.489h-16.34v-24.511 c0-4.512-3.657-8.17-8.17-8.17h-111.66c-4.513,0-8.17,3.658-8.17,8.17v288.681c0,4.512,3.657,8.17,8.17,8.17h57.191v16.34H95.319 v-16.34h57.191c4.513,0,8.17-3.658,8.17-8.17v-128c0-4.512-3.657-8.17-8.17-8.17s-8.17,3.658-8.17,8.17v119.83H87.149 c-4.513,0-8.17,3.658-8.17,8.17v32.681c0,4.512,3.657,8.17,8.17,8.17h239.66c4.513,0,8.17-3.658,8.17-8.17v-32.681 c0-4.512-3.657-8.17-8.17-8.17h-57.191v-272.34h95.319v24.511c0,4.512,3.657,8.17,8.17,8.17h32.681c4.513,0,8.17-3.658,8.17-8.17 V51.745C413.957,47.233,410.3,43.574,405.787,43.574z"/> <path d="M503.83,452.085h-24.511V59.915h24.511c4.513,0,8.17-3.658,8.17-8.17s-3.657-8.17-8.17-8.17h-65.362 c-4.513,0-8.17,3.658-8.17,8.17s3.657,8.17,8.17,8.17h24.511v392.17h-24.511c-4.513,0-8.17,3.658-8.17,8.17 c0,4.512,3.657,8.17,8.17,8.17h65.362c4.513,0,8.17-3.658,8.17-8.17C512,455.743,508.343,452.085,503.83,452.085z"/> </g>
</svg>