<!DOCTYPE svg PUBLIC "-//W3C//DTD SVG 1.1//EN" "http://www.w3.org/Graphics/SVG/1.1/DTD/svg11.dtd">
<!-- Uploaded to: SVG Repo, www.svgrepo.com, Transformed by: SVG Repo Mixer Tools -->
<svg fill="#22c55e" width="800px" height="800px" viewBox="0 0 256 256" id="Flat" xmlns="http://www.w3.org/2000/svg">
<g id="SVGRepo_bgCarrier" stroke-width="0"/>
<g id="SVGRepo_tracerCarrier" stroke-linecap="round" stroke-linejoin="round"/>
<g id="SVGRepo_iconCarrier"> <path d="M221.86719,83.16211A104.08689,104.08689,0,1,1,195.667,49.01855l22.67578-22.67578a8.00036,8.00036,0,0,1,11.31446,11.314L167.60352,99.71045l-.00489.00537-37.71289,37.7124-23.94922,23.94922a40.00864,40.00864,0,0,0,61.99805-35.66357,8.0002,8.0002,0,1,1,15.97461-.90821A56.01738,56.01738,0,0,1,88.40674,167.603l-.00537-.00489-.0044-.00488a55.99686,55.99686,0,0,1,73.1333-84.438l22.769-22.76855a87.88636,87.88636,0,1,0,23.13037,29.67187,8,8,0,0,1,14.4375-6.89648Z"/> </g>
</svg>