<!DOCTYPE svg PUBLIC "-//W3C//DTD SVG 1.1//EN" "http://www.w3.org/Graphics/SVG/1.1/DTD/svg11.dtd">
<!-- Uploaded to: SVG Repo, www.svgrepo.com, Transformed by: SVG Repo Mixer Tools -->
<svg height="800px" width="800px" version="1.1" id="Layer_1" xmlns="http://www.w3.org/2000/svg" xmlns:xlink="http://www.w3.org/1999/xlink" viewBox="0 0 392.598 392.598" xml:space="preserve" fill="#000000">
<g id="SVGRepo_bgCarrier" stroke-width="0"/>
<g id="SVGRepo_tracerCarrier" stroke-linecap="round" stroke-linejoin="round"/>
<g id="SVGRepo_iconCarrier"> <path style="fill:#FFFFFF;" d="M21.818,84.234v182.044h53.915c6.012,0,10.925,4.848,10.925,10.925 c0,6.012-4.848,10.925-10.925,10.925H21.818v23.596h26.117c6.012,0,10.925,4.848,10.925,10.925s-4.848,10.925-10.925,10.925H21.818 v26.376c0,6.012,4.848,10.925,10.925,10.925h327.111c6.012,0,10.925-4.848,10.925-10.925V84.234H21.818z"/> <path style="fill:#FFC10D;" d="M370.78,32.711c0-6.012-4.848-10.925-10.925-10.925H32.743c-6.012,0-10.925,4.848-10.925,10.925 v51.523H370.78L370.78,32.711L370.78,32.711z"/> <path style="fill:#000000;" d="M359.855,0H32.743C14.707,0,0.032,14.675,0.032,32.711v327.111c0,18.101,14.675,32.776,32.711,32.776 h327.111c18.036,0,32.711-14.675,32.711-32.711V32.711C392.566,14.675,377.891,0,359.855,0z M359.855,370.747H32.743 c-6.012,0-10.925-4.848-10.925-10.925v-26.376h26.117c6.012,0,10.925-4.848,10.925-10.925c0-6.012-4.848-10.925-10.925-10.925 H21.818V288h53.915c6.012,0,10.925-4.848,10.925-10.925c0-6.012-4.848-10.925-10.925-10.925H21.818V84.234V32.711 c0-6.012,4.848-10.925,10.925-10.925h327.111c6.012,0,10.925,4.848,10.925,10.925v51.523v275.588 C370.78,365.834,365.867,370.747,359.855,370.747z"/> <circle style="fill:#FFFFFF;" cx="182.141" cy="184.501" r="59.733"/> <path style="fill:#FFC10D;" d="M267.475,254.319l-15.515,15.515l48.937,48.937c4.202,4.202,11.442,4.202,15.515,0 c4.331-4.331,4.331-11.313,0-15.515L267.475,254.319z"/> <g> <path style="fill:#000000;" d="M331.863,287.806l-56.695-56.63c-4.267-4.267-11.119-4.267-15.451,0l-7.822,7.822l-5.236-5.236 c10.408-13.705,16.679-30.707,16.679-49.131c0-44.865-36.396-81.196-81.196-81.196s-81.196,36.331-81.196,81.196 s36.396,81.261,81.196,81.261c18.489,0,35.491-6.271,49.131-16.679l5.236,5.236l-7.822,7.628c-4.267,4.267-4.267,11.119,0,15.451 l56.63,56.63c13.123,13.576,35.168,11.83,46.352,0C344.663,321.422,344.663,300.606,331.863,287.806z M316.477,318.836 c-4.202,4.202-11.442,4.202-15.515,0l-49.002-49.002l15.515-15.515l48.937,48.937C320.679,307.523,320.679,314.505,316.477,318.836 z M122.408,184.501c0-32.97,26.764-59.733,59.733-59.733s59.733,26.764,59.733,59.733s-26.764,59.733-59.733,59.733 S122.408,217.535,122.408,184.501z"/> <path style="fill:#000000;" d="M248.663,49.325c0-6.012-4.848-10.925-10.925-10.925H48c-6.012-0.065-10.925,4.848-10.925,10.925 S41.923,60.25,48,60.25h189.802C243.814,60.186,248.663,55.337,248.663,49.325z"/> <path style="fill:#000000;" d="M279.24,60.186h10.925c6.012,0,10.925-4.848,10.925-10.925s-4.848-10.925-10.925-10.925H279.24 c-6.012,0-10.925,4.848-10.925,10.925S273.164,60.186,279.24,60.186z"/> <path style="fill:#000000;" d="M344.598,38.335h-10.925c-6.012,0-10.925,4.848-10.925,10.925s4.848,10.925,10.925,10.925h10.925 c6.012,0,10.925-4.848,10.925-10.925S350.61,38.335,344.598,38.335z"/> <path style="fill:#000000;" d="M151.887,154.246c-4.267,4.267-4.267,11.119,0,15.451c4.267,4.267,11.119,4.267,15.451,0 c8.21-8.21,21.527-8.21,29.802,0c4.202,4.331,11.119,4.073,15.451,0c4.267-4.267,4.267-11.119,0-15.451 C195.782,137.438,168.566,137.438,151.887,154.246z"/> </g> </g>
</svg>