<!DOCTYPE svg PUBLIC "-//W3C//DTD SVG 1.1//EN" "http://www.w3.org/Graphics/SVG/1.1/DTD/svg11.dtd">
<!-- Uploaded to: SVG Repo, www.svgrepo.com, Transformed by: SVG Repo Mixer Tools -->
<svg width="800px" height="800px" viewBox="0 0 24 24" fill="none" xmlns="http://www.w3.org/2000/svg">
<g id="SVGRepo_bgCarrier" stroke-width="0"/>
<g id="SVGRepo_tracerCarrier" stroke-linecap="round" stroke-linejoin="round"/>
<g id="SVGRepo_iconCarrier"> <path d="M7.5 19V19C6.11929 19 5 17.8807 5 16.5V16.5C5 15.1193 6.11929 14 7.5 14H16.5C17.8807 14 19 15.1193 19 16.5V16.5C19 17.8807 17.8807 19 16.5 19V19C15.1193 19 14 17.8807 14 16.5V7.5C14 6.11929 15.1193 5 16.5 5V5C17.8807 5 19 6.11929 19 7.5V7.5C19 8.88071 17.8807 10 16.5 10H7.5C6.11929 10 5 8.88071 5 7.5V7.5C5 6.11929 6.11929 5 7.5 5V5C8.88071 5 10 6.11929 10 7.5V16.5C10 17.8807 8.88071 19 7.5 19Z" stroke="#d946ef" stroke-width="2" stroke-linecap="round" stroke-linejoin="round"/> </g>
</svg>