<?xml version="1.0" encoding="utf-8"?><!-- Uploaded to: SVG Repo, www.svgrepo.com, Generator: SVG Repo Mixer Tools -->
<svg width="800px" height="800px" viewBox="0 0 36 36" xmlns="http://www.w3.org/2000/svg" xmlns:xlink="http://www.w3.org/1999/xlink" aria-hidden="true" role="img" class="iconify iconify--twemoji" preserveAspectRatio="xMidYMid meet"><path fill="#269" d="M0 29a4 4 0 0 0 4 4h24a4 4 0 0 0 4-4V12a4 4 0 0 0-4-4h-9c-3.562 0-3-5-8.438-5H4a4 4 0 0 0-4 4v22z"></path><path fill="#55ACEE" d="M30 10h-6.562C18 10 18.562 15 15 15H6a4 4 0 0 0-4 4v10a1 1 0 1 1-2 0a4 4 0 0 0 4 4h26a4 4 0 0 0 4-4V14a4 4 0 0 0-4-4z"></path></svg>