<!DOCTYPE svg PUBLIC "-//W3C//DTD SVG 1.1//EN" "http://www.w3.org/Graphics/SVG/1.1/DTD/svg11.dtd">
<!-- Uploaded to: SVG Repo, www.svgrepo.com, Transformed by: SVG Repo Mixer Tools -->
<svg fill="#3b82f6" version="1.1" id="Capa_1" xmlns="http://www.w3.org/2000/svg" xmlns:xlink="http://www.w3.org/1999/xlink" width="800px" height="800px" viewBox="0 0 445.553 445.553" xml:space="preserve">
<g id="SVGRepo_bgCarrier" stroke-width="0"/>
<g id="SVGRepo_tracerCarrier" stroke-linecap="round" stroke-linejoin="round"/>
<g id="SVGRepo_iconCarrier"> <g> <path d="M430.291,6.125H207.282c-8.414,0-15.26,6.846-15.26,15.26v82.756H17.586C7.873,104.141,0,112.014,0,121.725v300.117 c0,9.713,7.873,17.586,17.586,17.586h300.117c9.711,0,17.584-7.873,17.584-17.586V236.783h95.004 c8.414,0,15.262-6.846,15.262-15.26V21.384C445.553,12.97,438.705,6.125,430.291,6.125z M222.542,93.568h80.144v41.09h-80.144 V93.568z M222.542,165.177h80.144v41.088h-80.144V165.177z M300.117,404.258H35.17V139.31h156.853v77.732l-48.642,48.644 l-18.91-18.91c-1.9-1.9-4.668-2.642-7.262-1.945c-2.594,0.693-4.621,2.721-5.314,5.316l-25.512,95.227 c-0.693,2.594,0.047,5.361,1.945,7.26c1.43,1.43,3.35,2.203,5.316,2.203c0.648,0,1.303-0.084,1.945-0.258l95.227-25.508 c2.596-0.695,4.621-2.724,5.316-5.316c0.695-2.594-0.047-5.361-1.945-7.262l-18.911-18.912l60.798-60.797h64.043V404.258z M415.033,206.265h-80.145v-41.088h80.145V206.265z M415.033,134.658h-80.145v-41.09h80.145V134.658z"/> </g> </g>
</svg>